<?xml version="1.0" encoding="utf-8"?>
<!-- Generator: Adobe Illustrator 23.0.1, SVG Export Plug-In . SVG Version: 6.00 Build 0)  -->
<svg version="1.1" id="Layer_1" xmlns="http://www.w3.org/2000/svg" xmlns:xlink="http://www.w3.org/1999/xlink" x="0px" y="0px"
	 viewBox="0 0 85 85" style="enable-background:new 0 0 85 85;" xml:space="preserve">
<style type="text/css">
	.st0{fill:#FFFFFF;}
</style>
<path class="st0" d="M42.19,1.57c-22.64,0-41,18.36-41,41s18.36,41,41,41c22.64,0,41-18.36,41-41S64.84,1.57,42.19,1.57z
	 M66.23,57.6c0,5.73-4.65,10.44-10.44,10.44H28.6c-5.73,0-10.44-4.71-10.44-10.44V27.55c0-5.73,4.71-10.45,10.44-10.45v0.02h27.15
	c5.73,0,10.44,4.71,10.44,10.44l0.01,0.04v5.1c0,1.08-0.89,1.97-1.98,1.97c-1.08,0-1.97-0.89-1.97-1.97v-5.1l-0.01-0.04
	c0-3.57-2.93-6.5-6.5-6.5H28.6v-0.01c-3.57,0-6.5,2.93-6.5,6.5V57.6c0,3.57,2.93,6.5,6.5,6.5h27.19c3.63,0,6.5-2.93,6.5-6.5V46.45
	H42.19c-1.08,0-1.98-0.89-1.98-1.97c0-1.08,0.89-1.85,1.98-1.85h22.07c1.08,0,1.97,0.76,1.97,1.85V57.6z"/>
</svg>
