<?xml version="1.0" encoding="utf-8"?>
<!-- Generator: Adobe Illustrator 23.0.1, SVG Export Plug-In . SVG Version: 6.00 Build 0)  -->
<svg version="1.1" id="Layer_1" xmlns="http://www.w3.org/2000/svg" xmlns:xlink="http://www.w3.org/1999/xlink" x="0px" y="0px"
	 viewBox="0 0 85 85" style="enable-background:new 0 0 85 85;" xml:space="preserve">
<style type="text/css">
	.st0{clip-path:url(#SVGID_2_);fill:#82B624;}
</style>
<g>
	<defs>
		<rect id="SVGID_1_" x="1.7" y="2.1" width="80.8" height="80.8"/>
	</defs>
	<clipPath id="SVGID_2_">
		<use xlink:href="#SVGID_1_"  style="overflow:visible;"/>
	</clipPath>
	<path class="st0" d="M82.5,36.2v-8c-6.1-6.6-14.7-10.7-24.4-10.7c-14.5,0-26.8,9.4-31.4,22.4l4.6,1.3c4-11,14.4-18.8,26.7-18.8
		C68.5,22.3,77.5,27.9,82.5,36.2 M45.4,45l13.9,3.8l-0.9,3.3l-14-3.9c-0.1,0.8-0.3,1.7-0.3,2.5c0,7.7,6.3,14,14,14
		c7.7,0,14-6.3,14-14s-6.3-14-14-14C52.5,36.8,47.6,40.2,45.4,45 M40.6,43.7c2.8-6.9,9.6-11.8,17.5-11.8c10.4,0,18.9,8.5,18.9,18.9
		s-8.5,18.9-18.9,18.9s-18.9-8.5-18.9-18.9c0-1.3,0.1-2.6,0.4-3.8l-5-1.4c-0.4,1.7-0.6,3.4-0.6,5.2C33.9,64.2,44.8,75,58.1,75
		c13.3,0,24.2-10.8,24.2-24.2S71.4,26.7,58.1,26.7c-10.3,0-19.1,6.5-22.5,15.6L40.6,43.7z M49.6,82.9h8.5c13.8,0,19.8-7.8,22.4-14.6
		c-5.2,6.7-13.3,11-22.4,11c-15.7,0-28.6-12.8-28.6-28.6c0-2.2,0.3-4.3,0.8-6.4l-4.6-1.3c-0.6,2.5-1,5-1,7.7
		C24.7,66.2,35.3,79.1,49.6,82.9 M1.7,43.7v14.9c0,24.4,24.4,24.4,24.4,24.4h12.4c-10.8-6.6-18.2-18.5-18.2-32.1
		c0-3.1,0.5-6,1.1-8.8l-6.9-1.9L9.2,45L1.7,43.7z M82.2,22C79.3,2.1,58.1,2.1,58.1,2.1h-32C6,2.1,2.5,18.6,1.8,24.5l12.7,3.7l1,8.5
		l7,1.9c5.1-14.8,19-25.6,35.6-25.6C67.3,13.1,75.6,16.5,82.2,22"/>
</g>
</svg>
