<?xml version="1.0" encoding="utf-8"?>
<!-- Generator: Adobe Illustrator 23.0.1, SVG Export Plug-In . SVG Version: 6.00 Build 0)  -->
<svg version="1.1" id="Layer_1" xmlns="http://www.w3.org/2000/svg" xmlns:xlink="http://www.w3.org/1999/xlink" x="0px" y="0px"
	 viewBox="0 0 85 85" style="enable-background:new 0 0 85 85;" xml:space="preserve">
<style type="text/css">
	.st0{fill:#7FB223;}
</style>
<g>
	<path class="st0" d="M67.7,52.9c-4.7,3-10.9,1.6-13.8-3.1c-3-4.7-1.6-10.9,3.1-13.8c4.7-3,10.9-1.6,13.8,3.1
		C73.8,43.7,72.4,49.9,67.7,52.9 M56.2,27.9c-5.9,3.7-13.6,2-17.4-3.8c-3.7-5.9-2-13.6,3.8-17.4c5.9-3.7,13.6-2,17.3,3.8
		C63.8,16.4,62,24.2,56.2,27.9 M52.7,62c3.3-2.1,7.6-1.1,9.7,2.2c2.1,3.3,1.1,7.6-2.1,9.7C57,76,52.7,75,50.6,71.7
		S49.5,64.1,52.7,62 M82.7,58.6V26.3c0,0,0-24.6-24.6-24.6H27.3c4.2,7.5,2,17-5.4,21.7c-6.6,4.2-15,3-20.3-2.3
		c-0.3,1.6-0.5,3.3-0.5,5.2v32.3c0,0,0,24.6,24.6,24.6h12.4c0.2-1.8,1-3.5,2.7-4.6c2.9-1.9,6.8-1,8.6,1.9c0.5,0.8,0.8,1.7,0.8,2.7
		h7.7C58.1,83.2,82.7,83.2,82.7,58.6"/>
</g>
</svg>
