<?xml version="1.0" encoding="utf-8"?>
<!-- Generator: Adobe Illustrator 23.0.1, SVG Export Plug-In . SVG Version: 6.00 Build 0)  -->
<svg version="1.1" id="Layer_1" xmlns="http://www.w3.org/2000/svg" xmlns:xlink="http://www.w3.org/1999/xlink" x="0px" y="0px"
	 viewBox="0 0 85 85" style="enable-background:new 0 0 85 85;" xml:space="preserve">
<style type="text/css">
	.st0{fill:#82B624;}
</style>
<path class="st0" d="M58,2.1H25.8C1.3,2.1,1.3,26.7,1.3,26.7v32.2c0,24.5,24.5,24.5,24.5,24.5H58c24.5,0,24.5-24.5,24.5-24.5V26.7
	C82.5,2.1,58,2.1,58,2.1z M29.1,37.5l-13.5,6.2v0.2L29.1,50v8.2L9,47.1v-6.8l20.2-11.1V37.5z M38.4,66.1h-6.6l11.5-45.7h6.6
	L38.4,66.1z M74.6,47.1L54.2,58.2V50l13.7-6.3v-0.2l-13.7-6.2v-8.1l20.4,11.1V47.1z"/>
</svg>
